<mxfile host="app.diagrams.net" agent="Mozilla/5.0 (Windows NT 10.0; Win64; x64) AppleWebKit/537.36 (KHTML, like Gecko) Chrome/128.0.0.0 Safari/537.36" version="24.7.10">
  <diagram name="Página-1" id="S5G8_zqt5K8Ki9cH2cs7">
    <mxGraphModel dx="619" dy="1488" grid="1" gridSize="10" guides="1" tooltips="1" connect="1" arrows="1" fold="1" page="1" pageScale="1" pageWidth="827" pageHeight="1169" math="0" shadow="0">
      <root>
        <mxCell id="0" />
        <mxCell id="1" parent="0" />
        <mxCell id="e_4fx0ZrgVKR6o98eJWp-1" value="&lt;b style=&quot;-webkit-tap-highlight-color: transparent; color: rgb(60, 64, 67); font-family: Roboto, Arial, sans-serif; font-size: 14px; letter-spacing: 0.2px; text-align: start;&quot;&gt;&amp;nbsp;Campus&lt;/b&gt;" style="rounded=0;whiteSpace=wrap;html=1;" parent="1" vertex="1">
          <mxGeometry x="150" y="80" width="120" height="60" as="geometry" />
        </mxCell>
        <mxCell id="e_4fx0ZrgVKR6o98eJWp-2" value="&lt;b style=&quot;-webkit-tap-highlight-color: transparent; color: rgb(60, 64, 67); font-family: Roboto, Arial, sans-serif; font-size: 14px; letter-spacing: 0.2px; text-align: start;&quot;&gt;Faculdades&lt;/b&gt;" style="rounded=0;whiteSpace=wrap;html=1;" parent="1" vertex="1">
          <mxGeometry x="400" y="80" width="120" height="60" as="geometry" />
        </mxCell>
        <mxCell id="e_4fx0ZrgVKR6o98eJWp-25" value="" style="edgeStyle=orthogonalEdgeStyle;rounded=0;orthogonalLoop=1;jettySize=auto;html=1;endArrow=none;endFill=0;" parent="1" source="e_4fx0ZrgVKR6o98eJWp-3" target="e_4fx0ZrgVKR6o98eJWp-24" edge="1">
          <mxGeometry relative="1" as="geometry" />
        </mxCell>
        <mxCell id="e_4fx0ZrgVKR6o98eJWp-3" value="&lt;b style=&quot;-webkit-tap-highlight-color: transparent; color: rgb(60, 64, 67); font-family: Roboto, Arial, sans-serif; font-size: 14px; letter-spacing: 0.2px; text-align: start;&quot;&gt;Departamentos&lt;/b&gt;" style="rounded=0;whiteSpace=wrap;html=1;" parent="1" vertex="1">
          <mxGeometry x="400" y="250" width="120" height="60" as="geometry" />
        </mxCell>
        <mxCell id="e_4fx0ZrgVKR6o98eJWp-4" value="&lt;b style=&quot;-webkit-tap-highlight-color: transparent; color: rgb(60, 64, 67); font-family: Roboto, Arial, sans-serif; font-size: 14px; letter-spacing: 0.2px; text-align: start;&quot;&gt;Cursos&lt;/b&gt;" style="rounded=0;whiteSpace=wrap;html=1;" parent="1" vertex="1">
          <mxGeometry x="650" y="80" width="120" height="60" as="geometry" />
        </mxCell>
        <mxCell id="e_4fx0ZrgVKR6o98eJWp-5" value="&lt;b style=&quot;-webkit-tap-highlight-color: transparent; color: rgb(60, 64, 67); font-family: Roboto, Arial, sans-serif; font-size: 14px; letter-spacing: 0.2px; text-align: start;&quot;&gt;Disciplinas&lt;/b&gt;" style="rounded=0;whiteSpace=wrap;html=1;" parent="1" vertex="1">
          <mxGeometry x="650" y="250" width="120" height="60" as="geometry" />
        </mxCell>
        <mxCell id="e_4fx0ZrgVKR6o98eJWp-7" value="&lt;b style=&quot;-webkit-tap-highlight-color: transparent; color: rgb(60, 64, 67); font-family: Roboto, Arial, sans-serif; font-size: 14px; letter-spacing: 0.2px; text-align: start;&quot;&gt;Professores&lt;/b&gt;" style="rounded=0;whiteSpace=wrap;html=1;" parent="1" vertex="1">
          <mxGeometry x="400" y="440" width="120" height="60" as="geometry" />
        </mxCell>
        <mxCell id="e_4fx0ZrgVKR6o98eJWp-8" value="&lt;b style=&quot;-webkit-tap-highlight-color: transparent; color: rgb(60, 64, 67); font-family: Roboto, Arial, sans-serif; font-size: 14px; letter-spacing: 0.2px; text-align: start;&quot;&gt;Alunos&lt;/b&gt;" style="rounded=0;whiteSpace=wrap;html=1;" parent="1" vertex="1">
          <mxGeometry x="650" y="440" width="120" height="60" as="geometry" />
        </mxCell>
        <mxCell id="e_4fx0ZrgVKR6o98eJWp-85" value="" style="edgeStyle=orthogonalEdgeStyle;rounded=0;orthogonalLoop=1;jettySize=auto;html=1;" parent="1" source="e_4fx0ZrgVKR6o98eJWp-9" target="e_4fx0ZrgVKR6o98eJWp-36" edge="1">
          <mxGeometry relative="1" as="geometry" />
        </mxCell>
        <mxCell id="e_4fx0ZrgVKR6o98eJWp-86" value="" style="edgeStyle=orthogonalEdgeStyle;rounded=0;orthogonalLoop=1;jettySize=auto;html=1;" parent="1" source="e_4fx0ZrgVKR6o98eJWp-9" target="e_4fx0ZrgVKR6o98eJWp-36" edge="1">
          <mxGeometry relative="1" as="geometry" />
        </mxCell>
        <mxCell id="e_4fx0ZrgVKR6o98eJWp-9" value="&lt;b style=&quot;-webkit-tap-highlight-color: transparent; color: rgb(60, 64, 67); font-family: Roboto, Arial, sans-serif; font-size: 14px; letter-spacing: 0.2px; text-align: start;&quot;&gt;Turmas&lt;/b&gt;" style="rounded=0;whiteSpace=wrap;html=1;" parent="1" vertex="1">
          <mxGeometry x="930" y="77.5" width="120" height="60" as="geometry" />
        </mxCell>
        <mxCell id="e_4fx0ZrgVKR6o98eJWp-10" value="&lt;b style=&quot;-webkit-tap-highlight-color: transparent; color: rgb(60, 64, 67); font-family: Roboto, Arial, sans-serif; font-size: 14px; letter-spacing: 0.2px; text-align: start;&quot;&gt;Biblioteca&lt;/b&gt;" style="rounded=0;whiteSpace=wrap;html=1;" parent="1" vertex="1">
          <mxGeometry x="400" y="-140" width="120" height="60" as="geometry" />
        </mxCell>
        <mxCell id="e_4fx0ZrgVKR6o98eJWp-12" value="&lt;b style=&quot;-webkit-tap-highlight-color: transparent; color: rgb(60, 64, 67); font-family: Roboto, Arial, sans-serif; font-size: 14px; letter-spacing: 0.2px; text-align: start;&quot;&gt;Administração&lt;/b&gt;" style="rounded=0;whiteSpace=wrap;html=1;" parent="1" vertex="1">
          <mxGeometry x="30" y="890" width="120" height="60" as="geometry" />
        </mxCell>
        <mxCell id="e_4fx0ZrgVKR6o98eJWp-13" value="&lt;b style=&quot;-webkit-tap-highlight-color: transparent; color: rgb(60, 64, 67); font-family: Roboto, Arial, sans-serif; font-size: 14px; letter-spacing: 0.2px; text-align: start;&quot;&gt;Eventos Acadêmicos&lt;/b&gt;" style="rounded=0;whiteSpace=wrap;html=1;" parent="1" vertex="1">
          <mxGeometry x="40" y="1000" width="120" height="60" as="geometry" />
        </mxCell>
        <mxCell id="e_4fx0ZrgVKR6o98eJWp-15" value="" style="edgeStyle=orthogonalEdgeStyle;rounded=0;orthogonalLoop=1;jettySize=auto;html=1;endArrow=none;endFill=0;" parent="1" source="e_4fx0ZrgVKR6o98eJWp-14" target="e_4fx0ZrgVKR6o98eJWp-1" edge="1">
          <mxGeometry relative="1" as="geometry" />
        </mxCell>
        <mxCell id="e_4fx0ZrgVKR6o98eJWp-16" value="" style="edgeStyle=orthogonalEdgeStyle;rounded=0;orthogonalLoop=1;jettySize=auto;html=1;endArrow=none;endFill=0;" parent="1" source="e_4fx0ZrgVKR6o98eJWp-14" target="e_4fx0ZrgVKR6o98eJWp-2" edge="1">
          <mxGeometry relative="1" as="geometry" />
        </mxCell>
        <mxCell id="e_4fx0ZrgVKR6o98eJWp-14" value="Tem" style="rhombus;whiteSpace=wrap;html=1;" parent="1" vertex="1">
          <mxGeometry x="310" y="92.5" width="50" height="35" as="geometry" />
        </mxCell>
        <mxCell id="e_4fx0ZrgVKR6o98eJWp-17" value="1" style="text;html=1;align=center;verticalAlign=middle;whiteSpace=wrap;rounded=0;" parent="1" vertex="1">
          <mxGeometry x="270" y="90" width="20" height="20" as="geometry" />
        </mxCell>
        <mxCell id="e_4fx0ZrgVKR6o98eJWp-18" value="N" style="text;html=1;align=center;verticalAlign=middle;whiteSpace=wrap;rounded=0;" parent="1" vertex="1">
          <mxGeometry x="380" y="90" width="20" height="20" as="geometry" />
        </mxCell>
        <mxCell id="e_4fx0ZrgVKR6o98eJWp-20" value="" style="edgeStyle=orthogonalEdgeStyle;rounded=0;orthogonalLoop=1;jettySize=auto;html=1;endArrow=none;endFill=0;" parent="1" source="e_4fx0ZrgVKR6o98eJWp-19" target="e_4fx0ZrgVKR6o98eJWp-2" edge="1">
          <mxGeometry relative="1" as="geometry" />
        </mxCell>
        <mxCell id="e_4fx0ZrgVKR6o98eJWp-21" value="" style="edgeStyle=orthogonalEdgeStyle;rounded=0;orthogonalLoop=1;jettySize=auto;html=1;endArrow=none;endFill=0;" parent="1" source="e_4fx0ZrgVKR6o98eJWp-19" target="e_4fx0ZrgVKR6o98eJWp-4" edge="1">
          <mxGeometry relative="1" as="geometry" />
        </mxCell>
        <mxCell id="e_4fx0ZrgVKR6o98eJWp-19" value="Tem" style="rhombus;whiteSpace=wrap;html=1;" parent="1" vertex="1">
          <mxGeometry x="560" y="92.5" width="50" height="35" as="geometry" />
        </mxCell>
        <mxCell id="e_4fx0ZrgVKR6o98eJWp-22" value="N" style="text;html=1;align=center;verticalAlign=middle;whiteSpace=wrap;rounded=0;" parent="1" vertex="1">
          <mxGeometry x="520" y="90" width="20" height="20" as="geometry" />
        </mxCell>
        <mxCell id="e_4fx0ZrgVKR6o98eJWp-23" value="N" style="text;html=1;align=center;verticalAlign=middle;whiteSpace=wrap;rounded=0;" parent="1" vertex="1">
          <mxGeometry x="630" y="90" width="20" height="20" as="geometry" />
        </mxCell>
        <mxCell id="e_4fx0ZrgVKR6o98eJWp-26" value="" style="edgeStyle=orthogonalEdgeStyle;rounded=0;orthogonalLoop=1;jettySize=auto;html=1;endArrow=none;endFill=0;" parent="1" source="e_4fx0ZrgVKR6o98eJWp-24" target="e_4fx0ZrgVKR6o98eJWp-2" edge="1">
          <mxGeometry relative="1" as="geometry" />
        </mxCell>
        <mxCell id="e_4fx0ZrgVKR6o98eJWp-24" value="Tem" style="rhombus;whiteSpace=wrap;html=1;" parent="1" vertex="1">
          <mxGeometry x="435" y="180" width="50" height="35" as="geometry" />
        </mxCell>
        <mxCell id="e_4fx0ZrgVKR6o98eJWp-27" value="1" style="text;html=1;align=center;verticalAlign=middle;whiteSpace=wrap;rounded=0;" parent="1" vertex="1">
          <mxGeometry x="440" y="140" width="20" height="20" as="geometry" />
        </mxCell>
        <mxCell id="e_4fx0ZrgVKR6o98eJWp-28" value="N" style="text;html=1;align=center;verticalAlign=middle;whiteSpace=wrap;rounded=0;" parent="1" vertex="1">
          <mxGeometry x="440" y="230" width="20" height="20" as="geometry" />
        </mxCell>
        <mxCell id="e_4fx0ZrgVKR6o98eJWp-39" value="" style="edgeStyle=orthogonalEdgeStyle;rounded=0;orthogonalLoop=1;jettySize=auto;html=1;endArrow=none;endFill=0;" parent="1" source="e_4fx0ZrgVKR6o98eJWp-36" target="e_4fx0ZrgVKR6o98eJWp-9" edge="1">
          <mxGeometry relative="1" as="geometry" />
        </mxCell>
        <mxCell id="e_4fx0ZrgVKR6o98eJWp-42" value="" style="edgeStyle=orthogonalEdgeStyle;rounded=0;orthogonalLoop=1;jettySize=auto;html=1;endArrow=none;endFill=0;entryX=1;entryY=0.5;entryDx=0;entryDy=0;" parent="1" source="e_4fx0ZrgVKR6o98eJWp-36" target="e_4fx0ZrgVKR6o98eJWp-4" edge="1">
          <mxGeometry relative="1" as="geometry">
            <Array as="points">
              <mxPoint x="800" y="108" />
              <mxPoint x="770" y="108" />
            </Array>
          </mxGeometry>
        </mxCell>
        <mxCell id="e_4fx0ZrgVKR6o98eJWp-36" value="Tem" style="rhombus;whiteSpace=wrap;html=1;" parent="1" vertex="1">
          <mxGeometry x="827" y="90" width="50" height="35" as="geometry" />
        </mxCell>
        <mxCell id="e_4fx0ZrgVKR6o98eJWp-37" value="1" style="text;html=1;align=center;verticalAlign=middle;whiteSpace=wrap;rounded=0;" parent="1" vertex="1">
          <mxGeometry x="770" y="90" width="20" height="20" as="geometry" />
        </mxCell>
        <mxCell id="e_4fx0ZrgVKR6o98eJWp-38" value="N" style="text;html=1;align=center;verticalAlign=middle;whiteSpace=wrap;rounded=0;" parent="1" vertex="1">
          <mxGeometry x="910" y="90" width="20" height="20" as="geometry" />
        </mxCell>
        <mxCell id="e_4fx0ZrgVKR6o98eJWp-44" value="" style="edgeStyle=orthogonalEdgeStyle;rounded=0;orthogonalLoop=1;jettySize=auto;html=1;endArrow=none;endFill=0;" parent="1" source="e_4fx0ZrgVKR6o98eJWp-43" target="e_4fx0ZrgVKR6o98eJWp-5" edge="1">
          <mxGeometry relative="1" as="geometry" />
        </mxCell>
        <mxCell id="e_4fx0ZrgVKR6o98eJWp-46" style="edgeStyle=orthogonalEdgeStyle;rounded=0;orthogonalLoop=1;jettySize=auto;html=1;entryX=1;entryY=0.5;entryDx=0;entryDy=0;endArrow=none;endFill=0;" parent="1" source="e_4fx0ZrgVKR6o98eJWp-43" target="e_4fx0ZrgVKR6o98eJWp-3" edge="1">
          <mxGeometry relative="1" as="geometry" />
        </mxCell>
        <mxCell id="e_4fx0ZrgVKR6o98eJWp-43" value="" style="rhombus;whiteSpace=wrap;html=1;" parent="1" vertex="1">
          <mxGeometry x="560" y="262.5" width="50" height="35" as="geometry" />
        </mxCell>
        <mxCell id="e_4fx0ZrgVKR6o98eJWp-47" value="1" style="text;html=1;align=center;verticalAlign=middle;whiteSpace=wrap;rounded=0;" parent="1" vertex="1">
          <mxGeometry x="520" y="260" width="20" height="20" as="geometry" />
        </mxCell>
        <mxCell id="e_4fx0ZrgVKR6o98eJWp-48" value="N" style="text;html=1;align=center;verticalAlign=middle;whiteSpace=wrap;rounded=0;" parent="1" vertex="1">
          <mxGeometry x="630" y="260" width="20" height="20" as="geometry" />
        </mxCell>
        <mxCell id="e_4fx0ZrgVKR6o98eJWp-50" value="" style="edgeStyle=orthogonalEdgeStyle;rounded=0;orthogonalLoop=1;jettySize=auto;html=1;endArrow=none;endFill=0;" parent="1" source="e_4fx0ZrgVKR6o98eJWp-49" target="e_4fx0ZrgVKR6o98eJWp-4" edge="1">
          <mxGeometry relative="1" as="geometry" />
        </mxCell>
        <mxCell id="e_4fx0ZrgVKR6o98eJWp-51" value="" style="edgeStyle=orthogonalEdgeStyle;rounded=0;orthogonalLoop=1;jettySize=auto;html=1;endArrow=none;endFill=0;" parent="1" source="e_4fx0ZrgVKR6o98eJWp-49" target="e_4fx0ZrgVKR6o98eJWp-5" edge="1">
          <mxGeometry relative="1" as="geometry" />
        </mxCell>
        <mxCell id="e_4fx0ZrgVKR6o98eJWp-49" value="Tem" style="rhombus;whiteSpace=wrap;html=1;" parent="1" vertex="1">
          <mxGeometry x="685" y="180" width="50" height="35" as="geometry" />
        </mxCell>
        <mxCell id="e_4fx0ZrgVKR6o98eJWp-52" value="N" style="text;html=1;align=center;verticalAlign=middle;whiteSpace=wrap;rounded=0;" parent="1" vertex="1">
          <mxGeometry x="690" y="230" width="20" height="20" as="geometry" />
        </mxCell>
        <mxCell id="e_4fx0ZrgVKR6o98eJWp-55" value="N" style="text;html=1;align=center;verticalAlign=middle;whiteSpace=wrap;rounded=0;" parent="1" vertex="1">
          <mxGeometry x="690" y="140" width="20" height="20" as="geometry" />
        </mxCell>
        <mxCell id="e_4fx0ZrgVKR6o98eJWp-58" style="edgeStyle=orthogonalEdgeStyle;rounded=0;orthogonalLoop=1;jettySize=auto;html=1;entryX=0.5;entryY=1;entryDx=0;entryDy=0;endArrow=none;endFill=0;" parent="1" source="e_4fx0ZrgVKR6o98eJWp-56" target="e_4fx0ZrgVKR6o98eJWp-3" edge="1">
          <mxGeometry relative="1" as="geometry" />
        </mxCell>
        <mxCell id="e_4fx0ZrgVKR6o98eJWp-59" value="" style="edgeStyle=orthogonalEdgeStyle;rounded=0;orthogonalLoop=1;jettySize=auto;html=1;endArrow=none;endFill=0;" parent="1" source="e_4fx0ZrgVKR6o98eJWp-56" target="e_4fx0ZrgVKR6o98eJWp-7" edge="1">
          <mxGeometry relative="1" as="geometry" />
        </mxCell>
        <mxCell id="e_4fx0ZrgVKR6o98eJWp-56" value="" style="rhombus;whiteSpace=wrap;html=1;" parent="1" vertex="1">
          <mxGeometry x="435" y="360" width="50" height="35" as="geometry" />
        </mxCell>
        <mxCell id="e_4fx0ZrgVKR6o98eJWp-60" value="1" style="text;html=1;align=center;verticalAlign=middle;whiteSpace=wrap;rounded=0;" parent="1" vertex="1">
          <mxGeometry x="440" y="420" width="20" height="20" as="geometry" />
        </mxCell>
        <mxCell id="e_4fx0ZrgVKR6o98eJWp-61" value="1" style="text;html=1;align=center;verticalAlign=middle;whiteSpace=wrap;rounded=0;" parent="1" vertex="1">
          <mxGeometry x="440" y="310" width="20" height="20" as="geometry" />
        </mxCell>
        <mxCell id="e_4fx0ZrgVKR6o98eJWp-64" style="edgeStyle=orthogonalEdgeStyle;rounded=0;orthogonalLoop=1;jettySize=auto;html=1;entryX=0.75;entryY=0;entryDx=0;entryDy=0;endArrow=none;endFill=0;" parent="1" edge="1">
          <mxGeometry relative="1" as="geometry">
            <mxPoint x="570.0088183421517" y="377.4938271604938" as="sourcePoint" />
            <mxPoint x="500" y="440" as="targetPoint" />
            <Array as="points">
              <mxPoint x="500" y="377" />
            </Array>
          </mxGeometry>
        </mxCell>
        <mxCell id="e_4fx0ZrgVKR6o98eJWp-62" value="&lt;font style=&quot;font-size: 8px;&quot;&gt;Leciona&lt;/font&gt;" style="rhombus;whiteSpace=wrap;html=1;" parent="1" vertex="1">
          <mxGeometry x="560" y="360" width="50" height="35" as="geometry" />
        </mxCell>
        <mxCell id="e_4fx0ZrgVKR6o98eJWp-65" style="edgeStyle=orthogonalEdgeStyle;rounded=0;orthogonalLoop=1;jettySize=auto;html=1;entryX=0.167;entryY=1;entryDx=0;entryDy=0;entryPerimeter=0;endArrow=none;endFill=0;" parent="1" source="e_4fx0ZrgVKR6o98eJWp-62" target="e_4fx0ZrgVKR6o98eJWp-5" edge="1">
          <mxGeometry relative="1" as="geometry" />
        </mxCell>
        <mxCell id="e_4fx0ZrgVKR6o98eJWp-66" value="1" style="text;html=1;align=center;verticalAlign=middle;whiteSpace=wrap;rounded=0;" parent="1" vertex="1">
          <mxGeometry x="500" y="420" width="20" height="20" as="geometry" />
        </mxCell>
        <mxCell id="e_4fx0ZrgVKR6o98eJWp-67" value="N" style="text;html=1;align=center;verticalAlign=middle;whiteSpace=wrap;rounded=0;" parent="1" vertex="1">
          <mxGeometry x="650" y="310" width="20" height="20" as="geometry" />
        </mxCell>
        <mxCell id="e_4fx0ZrgVKR6o98eJWp-69" style="edgeStyle=orthogonalEdgeStyle;rounded=0;orthogonalLoop=1;jettySize=auto;html=1;entryX=1;entryY=0.5;entryDx=0;entryDy=0;endArrow=none;endFill=0;" parent="1" source="e_4fx0ZrgVKR6o98eJWp-68" target="e_4fx0ZrgVKR6o98eJWp-7" edge="1">
          <mxGeometry relative="1" as="geometry" />
        </mxCell>
        <mxCell id="e_4fx0ZrgVKR6o98eJWp-70" style="rounded=0;orthogonalLoop=1;jettySize=auto;html=1;exitX=1;exitY=0.5;exitDx=0;exitDy=0;entryX=0;entryY=0.5;entryDx=0;entryDy=0;endArrow=none;endFill=0;" parent="1" source="e_4fx0ZrgVKR6o98eJWp-68" target="e_4fx0ZrgVKR6o98eJWp-8" edge="1">
          <mxGeometry relative="1" as="geometry" />
        </mxCell>
        <mxCell id="e_4fx0ZrgVKR6o98eJWp-68" value="" style="rhombus;whiteSpace=wrap;html=1;" parent="1" vertex="1">
          <mxGeometry x="560" y="452.5" width="50" height="35" as="geometry" />
        </mxCell>
        <mxCell id="e_4fx0ZrgVKR6o98eJWp-71" value="N" style="text;html=1;align=center;verticalAlign=middle;whiteSpace=wrap;rounded=0;" parent="1" vertex="1">
          <mxGeometry x="520" y="449.5" width="20" height="20" as="geometry" />
        </mxCell>
        <mxCell id="e_4fx0ZrgVKR6o98eJWp-72" value="N" style="text;html=1;align=center;verticalAlign=middle;whiteSpace=wrap;rounded=0;" parent="1" vertex="1">
          <mxGeometry x="630" y="449.5" width="20" height="20" as="geometry" />
        </mxCell>
        <mxCell id="e_4fx0ZrgVKR6o98eJWp-75" style="edgeStyle=orthogonalEdgeStyle;rounded=0;orthogonalLoop=1;jettySize=auto;html=1;entryX=0.5;entryY=0;entryDx=0;entryDy=0;endArrow=none;endFill=0;" parent="1" source="e_4fx0ZrgVKR6o98eJWp-74" target="e_4fx0ZrgVKR6o98eJWp-8" edge="1">
          <mxGeometry relative="1" as="geometry" />
        </mxCell>
        <mxCell id="e_4fx0ZrgVKR6o98eJWp-76" style="edgeStyle=orthogonalEdgeStyle;rounded=0;orthogonalLoop=1;jettySize=auto;html=1;entryX=0.5;entryY=1;entryDx=0;entryDy=0;endArrow=none;endFill=0;" parent="1" source="e_4fx0ZrgVKR6o98eJWp-74" target="e_4fx0ZrgVKR6o98eJWp-5" edge="1">
          <mxGeometry relative="1" as="geometry" />
        </mxCell>
        <mxCell id="e_4fx0ZrgVKR6o98eJWp-74" value="" style="rhombus;whiteSpace=wrap;html=1;" parent="1" vertex="1">
          <mxGeometry x="685" y="360" width="50" height="35" as="geometry" />
        </mxCell>
        <mxCell id="e_4fx0ZrgVKR6o98eJWp-77" value="1" style="text;html=1;align=center;verticalAlign=middle;whiteSpace=wrap;rounded=0;" parent="1" vertex="1">
          <mxGeometry x="710" y="420" width="20" height="20" as="geometry" />
        </mxCell>
        <mxCell id="e_4fx0ZrgVKR6o98eJWp-78" value="N" style="text;html=1;align=center;verticalAlign=middle;whiteSpace=wrap;rounded=0;" parent="1" vertex="1">
          <mxGeometry x="710" y="310" width="20" height="20" as="geometry" />
        </mxCell>
        <mxCell id="e_4fx0ZrgVKR6o98eJWp-81" value="" style="rhombus;whiteSpace=wrap;html=1;" parent="1" vertex="1">
          <mxGeometry x="827" y="180" width="50" height="35" as="geometry" />
        </mxCell>
        <mxCell id="e_4fx0ZrgVKR6o98eJWp-82" style="edgeStyle=orthogonalEdgeStyle;rounded=0;orthogonalLoop=1;jettySize=auto;html=1;entryX=0.153;entryY=1.002;entryDx=0;entryDy=0;entryPerimeter=0;endArrow=none;endFill=0;" parent="1" source="e_4fx0ZrgVKR6o98eJWp-81" target="e_4fx0ZrgVKR6o98eJWp-9" edge="1">
          <mxGeometry relative="1" as="geometry" />
        </mxCell>
        <mxCell id="e_4fx0ZrgVKR6o98eJWp-83" style="edgeStyle=orthogonalEdgeStyle;rounded=0;orthogonalLoop=1;jettySize=auto;html=1;entryX=0.847;entryY=-0.019;entryDx=0;entryDy=0;entryPerimeter=0;endArrow=none;endFill=0;" parent="1" source="e_4fx0ZrgVKR6o98eJWp-81" target="e_4fx0ZrgVKR6o98eJWp-5" edge="1">
          <mxGeometry relative="1" as="geometry" />
        </mxCell>
        <mxCell id="e_4fx0ZrgVKR6o98eJWp-84" value="1" style="text;html=1;align=center;verticalAlign=middle;whiteSpace=wrap;rounded=0;" parent="1" vertex="1">
          <mxGeometry x="750" y="230" width="20" height="20" as="geometry" />
        </mxCell>
        <mxCell id="e_4fx0ZrgVKR6o98eJWp-87" value="N" style="text;html=1;align=center;verticalAlign=middle;whiteSpace=wrap;rounded=0;" parent="1" vertex="1">
          <mxGeometry x="930" y="137.5" width="20" height="20" as="geometry" />
        </mxCell>
        <mxCell id="H1fN4fulN-GAYaqD0Phw-3" style="edgeStyle=orthogonalEdgeStyle;rounded=0;orthogonalLoop=1;jettySize=auto;html=1;entryX=0.5;entryY=0;entryDx=0;entryDy=0;endArrow=none;endFill=0;" edge="1" parent="1" source="e_4fx0ZrgVKR6o98eJWp-90" target="e_4fx0ZrgVKR6o98eJWp-2">
          <mxGeometry relative="1" as="geometry" />
        </mxCell>
        <mxCell id="H1fN4fulN-GAYaqD0Phw-4" style="edgeStyle=orthogonalEdgeStyle;rounded=0;orthogonalLoop=1;jettySize=auto;html=1;entryX=0.5;entryY=1;entryDx=0;entryDy=0;endArrow=none;endFill=0;" edge="1" parent="1" source="e_4fx0ZrgVKR6o98eJWp-90" target="e_4fx0ZrgVKR6o98eJWp-10">
          <mxGeometry relative="1" as="geometry" />
        </mxCell>
        <mxCell id="e_4fx0ZrgVKR6o98eJWp-90" value="Tem" style="rhombus;whiteSpace=wrap;html=1;" parent="1" vertex="1">
          <mxGeometry x="435" y="-20" width="50" height="35" as="geometry" />
        </mxCell>
        <mxCell id="e_4fx0ZrgVKR6o98eJWp-98" value="1" style="text;html=1;align=center;verticalAlign=middle;whiteSpace=wrap;rounded=0;" parent="1" vertex="1">
          <mxGeometry x="440" y="-80" width="20" height="20" as="geometry" />
        </mxCell>
        <mxCell id="H1fN4fulN-GAYaqD0Phw-5" value="1" style="text;html=1;align=center;verticalAlign=middle;whiteSpace=wrap;rounded=0;" vertex="1" parent="1">
          <mxGeometry x="440" y="57.5" width="20" height="20" as="geometry" />
        </mxCell>
      </root>
    </mxGraphModel>
  </diagram>
</mxfile>
